<svg xmlns="http://www.w3.org/2000/svg" width="1238" height="1238" viewBox="0 0 1238 1238" role="img" aria-labelledby="title desc">
  <title id="title">LeetSpeak social preview</title>
  <desc id="desc">The LeetSpeak logo beside the LeetSpeak wordmark on a white background.</desc>
  <rect width="1238" height="1238" fill="#ffffff" />
  <g transform="translate(58 640) scale(0.68)">
    <path d="M345.979 152.452c3.694.148 7.388.209 11.085.266 7.657.118 15.315.293 22.966.624 1.037.031 1.037.031 2.094.063 5.725.287 11.408 1.542 15.899 5.279.446.579.892 1.158 1.352 1.754.692.864.692.864 1.398 1.746 2.371 3.51 3.476 6.62 3.495 10.891.009.918.018 1.837.027 2.783 0 1.005-.001 2.011-.001 3.047.008 1.071.015 2.142.023 3.246.022 3.601.03 7.202.038 10.803.013 2.577.026 5.154.04 7.731.04 7.742.06 15.484.078 23.226.009 3.647.02 7.294.03 10.941.034 12.127.063 24.255.078 36.382.004 3.146.008 6.292.012 9.438l.003 2.37c.017 12.665.067 25.329.132 37.994.066 13.008.102 26.016.109 39.024.004 7.302.022 14.603.073 21.905.048 6.869.055 13.737.035 20.607 0 2.52.012 5.04.039 7.56.036 3.444.022 6.885-.004 10.329.022.994.044 1.989.067 3.014-.127 6.912-2.184 10.301-7.016 15.199-7.025 6.338-12.829 6.395-22.197 6.298-1.316.002-2.632.004-3.988.006-3.593.005-7.185-.014-10.778-.038-3.762-.021-7.524-.021-11.286-.023-6.309-.007-12.619-.028-18.928-.06-8.108-.04-16.216-.057-24.324-.067-6.968-.008-13.936-.025-20.904-.044-2.243-.007-4.486-.012-6.728-.018-4.166-.01-8.332-.03-12.498-.05-1.248-.003-2.496-.005-3.782-.008-1.127-.007-2.255-.014-3.416-.022-.985-.004-1.971-.008-2.986-.013-2.212-.134-2.212-.134-3.212-1.134-.164-2.765-.263-5.506-.319-8.274-.021-.869-.042-1.737-.064-2.632-.184-8.076-.289-16.153-.371-24.23-.056-5.42-.137-10.837-.28-16.255-.138-5.247-.209-10.491-.237-15.74-.021-1.987-.065-3.973-.132-5.959-.489-14.998 2.905-23.491 12.683-34.85 2.951-3.532 5.565-7.304 8.221-11.06 1.082-1.501 2.165-3.001 3.25-4.5.536-.743 1.072-1.485 1.625-2.25 30.875-42.75 30.875-42.75 32.502-45.002 1.079-1.494 2.158-2.988 3.236-4.483 2.774-3.844 5.555-7.682 8.35-11.511.571-.786 1.143-1.571 1.732-2.381 1.074-1.476 2.15-2.95 3.23-4.422 4.135-5.69 7.776-11.479 11.576-17.45-24.09-.33-48.18-.66-73-1.0 1.375-4.123 2.307-6.842 4.441-10.378.493-.824.985-1.648 1.493-2.497.537-.887 1.075-1.773 1.628-2.687 1.178-1.967 2.355-3.934 3.532-5.902.63-1.051 1.261-2.103 1.91-3.187 2.089-3.503 4.156-7.018 6.215-10.539.36-.616.72-1.232 1.091-1.866 1.751-2.995 3.5-5.991 5.249-8.987 1.012-1.73 2.026-3.46 3.101-5.152 2.26-3.617 3.807-7.043 5.141-11.102 7.913-21.031 28.219-17.109 47.179-16.248Z" fill="#111111"/>
    <path d="M52.806 152.623c4.401-.119 8.79-.284 13.184-.563 28.225-1.748 28.225-1.748 35.992 4.239 5.014 5.859 8.014 12.493 10.786 19.635 1.606 4 3.699 7.518 5.995 11.149 1.309 2.243 2.618 4.486 3.925 6.73 3.973 6.815 7.951 13.624 12.054 20.363.565.929 1.13 1.858 1.712 2.815 1.042 1.707 2.09 3.41 3.144 5.11.453.742.907 1.485 1.374 2.25.394.637.789 1.275 1.195 1.932.832 1.716.832 1.716.832 4.716-.894.015-.894.015-1.806.03-6.346.111-12.692.225-19.038.342-2.351.042-4.702.084-7.053.124-16.379.284-32.738.772-49.103 1.502.731.931 1.462 1.862 2.215 2.82 3.859 4.912 7.718 9.823 11.577 14.735.447.569.894 1.138 1.355 1.724.91 1.159 1.82 2.317 2.73 3.476 2.254 2.869 4.509 5.737 6.766 8.603 5.745 7.3 11.458 14.624 17.157 21.96 5.374 6.914 10.781 13.801 16.199 20.68 6.059 7.695 12.104 15.401 18.125 23.126.55.704 1.099 1.408 1.666 2.133 1.096 1.408 2.177 2.827 3.243 4.258 1.93 2.533 1.93 2.533 4.25 4.796 8.655 9.512 7.887 19.092 7.594 31.421-.017 2.091-.03 4.181-.039 6.272-.034 5.465-.122 10.928-.222 16.394-.093 5.591-.134 11.182-.179 16.773-.096 10.944-.249 21.886-.439 32.829-16.664-.084-33.328-.179-49.992-.287-7.738-.05-15.476-.097-23.214-.135-6.747-.033-13.494-.073-20.241-.121-3.57-.025-7.14-.047-10.71-.06-3.993-.016-7.985-.047-11.978-.079-1.174-.002-2.348-.005-3.558-.007-16.927-.172-16.927-.172-22.681-5.562-.627-.562-1.254-1.124-1.899-1.703-4.963-5.884-5.158-11.195-5.108-18.554-.005-1.058-.01-2.116-.014-3.206-.012-3.544-.003-7.088.006-10.632-.004-2.541-.009-5.083-.015-7.624-.012-6.186-.01-12.372-.001-18.558.007-5.029.008-10.057.005-15.086v-2.17c0-1.454-.002-2.909-.003-4.363-.009-13.637.001-27.274.017-40.911.013-11.696.011-23.392-.003-35.088-.016-13.587-.022-27.174-.013-40.761 0-1.449.001-2.899.002-4.348v-2.161c.003-5.02-.002-10.041-.009-15.062-.009-6.761-.002-13.521.015-20.282.004-2.482.003-4.964-.003-7.446-.009-3.387.001-6.773.016-10.16-.007-.983-.013-1.966-.02-3.0.061-7.064 1.013-11.96 5.839-17.404C25.887 151.057 40.452 152.974 53.786 152.623Z" fill="#111111"/>
    <path d="M317 57c4.857.417 7.451 2.8 10.813 6.063.502.472 1.004.944 1.521 1.43 1.23 1.16 2.449 2.332 3.666 3.506-1.458 4.533-4.022 7.678-7.125 11.188-1.004 1.159-2.006 2.319-3.008 3.48-.491.568-.983 1.135-1.489 1.72-1.848 2.161-3.617 4.379-5.378 6.611-3.53 4.454-7.184 8.791-10.868 13.118-2.878 3.386-5.71 6.803-8.507 10.257-4.258 5.236-8.668 10.332-13.11 15.412-2.92 3.345-5.773 6.719-8.516 10.213-4.763-.479-7.226-2.495-10.813-5.563-.976-.826-1.952-1.652-2.957-2.504-.736-.638-1.472-1.276-2.23-1.933.538-4.256 3.144-7.09 5.75-10.313.485-.608.97-1.217 1.47-1.844 4.228-5.26 8.632-10.362 13.076-15.44 3.918-4.477 7.715-9.036 11.46-13.66 2.545-3.112 5.138-6.179 7.742-9.242 6.288-7.402 12.44-14.909 18.5-22.5Z" fill="#111111"/>
    <path d="M87.081 57.25c2.865 1.119 4.053 3.017 5.919 5.437.783.994 1.567 1.988 2.375 3.012.421.536.842 1.072 1.277 1.623 2.375 2.957 4.867 5.813 7.349 8.68 4.301 4.988 8.505 10.042 12.656 15.156 3.239 3.929 6.566 7.779 9.89 11.636 3.904 4.539 7.717 9.14 11.471 13.805 1.797 2.176 3.679 4.219 5.609 6.277 2.375 3.125 2.375 3.125 2.355 5.516-1.341 3.57-3.343 5.101-6.293 7.484-1.448 1.203-1.448 1.203-2.926 2.43-2.761 1.695-2.761 1.695-4.793 1.789-2.937-1.632-4.971-3.972-7.156-6.469-.485-.542-.97-1.083-1.47-1.641-3.761-4.235-7.352-8.601-10.905-13.011-2.875-3.506-5.835-6.93-8.813-10.349C72 81.043 72 81.043 72 75.75c2.044-1.902 4.036-3.572 6.25-5.25.587-.472 1.173-.944 1.777-1.43 4.409-3.388 4.409-3.388 7.054-3.07Z" fill="#111111"/>
    <path d="M196 19h17v99h-17V19Z" fill="#111111"/>
  </g>
  <text
    x="470"
    y="590"
    fill="#111111"
    font-family="Arial, Helvetica, sans-serif"
    font-size="166"
    font-weight="400"
    letter-spacing="0"
  >
    LeetSpeak
  </text>
</svg>
